<mxfile host="app.diagrams.net" modified="2022-09-11T02:45:25.203Z" agent="5.0 (Windows NT 10.0; Win64; x64) AppleWebKit/537.36 (KHTML, like Gecko) Chrome/105.0.0.0 Safari/537.36" etag="tXh_hz__DtVlMFFvoaMP" version="20.3.0" type="github">
  <diagram id="sxN325sRZpVj1u20MzkJ" name="第 1 页">
    <mxGraphModel dx="782" dy="468" grid="1" gridSize="10" guides="1" tooltips="1" connect="1" arrows="1" fold="1" page="1" pageScale="1" pageWidth="827" pageHeight="1169" math="0" shadow="0">
      <root>
        <mxCell id="0" />
        <mxCell id="1" parent="0" />
        <mxCell id="uXULtcH5huKSdauQUMfN-3" style="edgeStyle=orthogonalEdgeStyle;rounded=0;orthogonalLoop=1;jettySize=auto;html=1;exitX=1;exitY=0.5;exitDx=0;exitDy=0;fontSize=17;" edge="1" parent="1">
          <mxGeometry relative="1" as="geometry">
            <mxPoint x="519" y="210" as="targetPoint" />
            <mxPoint x="379" y="145" as="sourcePoint" />
            <Array as="points">
              <mxPoint x="519" y="145" />
            </Array>
          </mxGeometry>
        </mxCell>
        <mxCell id="uXULtcH5huKSdauQUMfN-1" value="&lt;font style=&quot;font-size: 17px;&quot;&gt;Split&lt;/font&gt;" style="rounded=0;whiteSpace=wrap;html=1;fillColor=#fff2cc;strokeColor=#d6b656;" vertex="1" parent="1">
          <mxGeometry x="318" y="130" width="82" height="30" as="geometry" />
        </mxCell>
        <mxCell id="uXULtcH5huKSdauQUMfN-8" value="" style="endArrow=classic;html=1;rounded=0;fontSize=17;" edge="1" parent="1">
          <mxGeometry width="50" height="50" relative="1" as="geometry">
            <mxPoint x="439" y="180" as="sourcePoint" />
            <mxPoint x="439" y="210" as="targetPoint" />
          </mxGeometry>
        </mxCell>
        <mxCell id="uXULtcH5huKSdauQUMfN-9" value="" style="endArrow=none;html=1;rounded=0;fontSize=17;" edge="1" parent="1">
          <mxGeometry width="50" height="50" relative="1" as="geometry">
            <mxPoint x="439" y="180" as="sourcePoint" />
            <mxPoint x="519" y="180" as="targetPoint" />
          </mxGeometry>
        </mxCell>
        <mxCell id="uXULtcH5huKSdauQUMfN-10" value="" style="endArrow=none;html=1;rounded=0;fontSize=17;" edge="1" parent="1">
          <mxGeometry width="50" height="50" relative="1" as="geometry">
            <mxPoint x="519" y="180" as="sourcePoint" />
            <mxPoint x="599" y="180" as="targetPoint" />
          </mxGeometry>
        </mxCell>
        <mxCell id="uXULtcH5huKSdauQUMfN-11" value="" style="endArrow=classic;html=1;rounded=0;fontSize=17;" edge="1" parent="1">
          <mxGeometry width="50" height="50" relative="1" as="geometry">
            <mxPoint x="599" y="180" as="sourcePoint" />
            <mxPoint x="599" y="210" as="targetPoint" />
          </mxGeometry>
        </mxCell>
        <mxCell id="uXULtcH5huKSdauQUMfN-12" value="&lt;div style=&quot;text-align: left;&quot;&gt;1x1&lt;/div&gt;" style="rounded=0;whiteSpace=wrap;html=1;fontSize=17;fillColor=#d5e8d4;strokeColor=#82b366;" vertex="1" parent="1">
          <mxGeometry x="409" y="210" width="60" height="30" as="geometry" />
        </mxCell>
        <mxCell id="uXULtcH5huKSdauQUMfN-16" style="edgeStyle=orthogonalEdgeStyle;rounded=0;orthogonalLoop=1;jettySize=auto;html=1;exitX=0.5;exitY=1;exitDx=0;exitDy=0;fontSize=17;" edge="1" parent="1" source="uXULtcH5huKSdauQUMfN-13">
          <mxGeometry relative="1" as="geometry">
            <mxPoint x="519" y="270" as="targetPoint" />
          </mxGeometry>
        </mxCell>
        <mxCell id="uXULtcH5huKSdauQUMfN-13" value="1x1" style="rounded=0;whiteSpace=wrap;html=1;fontSize=17;fillColor=#d5e8d4;strokeColor=#82b366;" vertex="1" parent="1">
          <mxGeometry x="489" y="210" width="60" height="30" as="geometry" />
        </mxCell>
        <mxCell id="uXULtcH5huKSdauQUMfN-17" style="edgeStyle=orthogonalEdgeStyle;rounded=0;orthogonalLoop=1;jettySize=auto;html=1;exitX=0.5;exitY=1;exitDx=0;exitDy=0;fontSize=17;" edge="1" parent="1" source="uXULtcH5huKSdauQUMfN-14">
          <mxGeometry relative="1" as="geometry">
            <mxPoint x="599" y="270" as="targetPoint" />
          </mxGeometry>
        </mxCell>
        <mxCell id="uXULtcH5huKSdauQUMfN-14" value="1x1" style="rounded=0;whiteSpace=wrap;html=1;fontSize=17;fillColor=#d5e8d4;strokeColor=#82b366;" vertex="1" parent="1">
          <mxGeometry x="569" y="210" width="60" height="30" as="geometry" />
        </mxCell>
        <mxCell id="uXULtcH5huKSdauQUMfN-15" value="" style="endArrow=classic;html=1;rounded=0;fontSize=17;exitX=0.5;exitY=1;exitDx=0;exitDy=0;" edge="1" parent="1" source="uXULtcH5huKSdauQUMfN-12">
          <mxGeometry width="50" height="50" relative="1" as="geometry">
            <mxPoint x="449" y="190" as="sourcePoint" />
            <mxPoint x="439" y="270" as="targetPoint" />
          </mxGeometry>
        </mxCell>
        <mxCell id="uXULtcH5huKSdauQUMfN-18" value="&lt;div style=&quot;text-align: left;&quot;&gt;3x1&lt;/div&gt;" style="rounded=0;whiteSpace=wrap;html=1;fontSize=17;fillColor=#b0e3e6;strokeColor=#0e8088;" vertex="1" parent="1">
          <mxGeometry x="409" y="270" width="60" height="30" as="geometry" />
        </mxCell>
        <mxCell id="uXULtcH5huKSdauQUMfN-22" style="edgeStyle=orthogonalEdgeStyle;rounded=0;orthogonalLoop=1;jettySize=auto;html=1;exitX=0.5;exitY=1;exitDx=0;exitDy=0;fontSize=17;" edge="1" parent="1" source="uXULtcH5huKSdauQUMfN-19">
          <mxGeometry relative="1" as="geometry">
            <mxPoint x="519" y="330" as="targetPoint" />
          </mxGeometry>
        </mxCell>
        <mxCell id="uXULtcH5huKSdauQUMfN-19" value="1x3" style="rounded=0;whiteSpace=wrap;html=1;fontSize=17;fillColor=#b0e3e6;strokeColor=#0e8088;" vertex="1" parent="1">
          <mxGeometry x="489" y="270" width="60" height="30" as="geometry" />
        </mxCell>
        <mxCell id="uXULtcH5huKSdauQUMfN-20" value="&lt;div style=&quot;text-align: left;&quot;&gt;3x3&lt;/div&gt;" style="rounded=0;whiteSpace=wrap;html=1;fontSize=17;fillColor=#b0e3e6;strokeColor=#0e8088;" vertex="1" parent="1">
          <mxGeometry x="569" y="270" width="60" height="30" as="geometry" />
        </mxCell>
        <mxCell id="uXULtcH5huKSdauQUMfN-24" value="" style="endArrow=none;html=1;rounded=0;fontSize=17;entryX=0.5;entryY=1;entryDx=0;entryDy=0;" edge="1" parent="1" target="uXULtcH5huKSdauQUMfN-18">
          <mxGeometry width="50" height="50" relative="1" as="geometry">
            <mxPoint x="439" y="340" as="sourcePoint" />
            <mxPoint x="329" y="250" as="targetPoint" />
          </mxGeometry>
        </mxCell>
        <mxCell id="uXULtcH5huKSdauQUMfN-26" value="" style="endArrow=none;html=1;rounded=0;fontSize=17;entryX=0.5;entryY=1;entryDx=0;entryDy=0;" edge="1" parent="1" target="uXULtcH5huKSdauQUMfN-20">
          <mxGeometry width="50" height="50" relative="1" as="geometry">
            <mxPoint x="599" y="340" as="sourcePoint" />
            <mxPoint x="639" y="330" as="targetPoint" />
          </mxGeometry>
        </mxCell>
        <mxCell id="uXULtcH5huKSdauQUMfN-27" value="" style="endArrow=classic;html=1;rounded=0;fontSize=17;" edge="1" parent="1">
          <mxGeometry width="50" height="50" relative="1" as="geometry">
            <mxPoint x="439" y="340" as="sourcePoint" />
            <mxPoint x="509" y="340" as="targetPoint" />
          </mxGeometry>
        </mxCell>
        <mxCell id="uXULtcH5huKSdauQUMfN-28" value="" style="endArrow=classic;html=1;rounded=0;fontSize=17;" edge="1" parent="1">
          <mxGeometry width="50" height="50" relative="1" as="geometry">
            <mxPoint x="599" y="340" as="sourcePoint" />
            <mxPoint x="529" y="340" as="targetPoint" />
          </mxGeometry>
        </mxCell>
        <mxCell id="uXULtcH5huKSdauQUMfN-29" value="+" style="ellipse;whiteSpace=wrap;html=1;aspect=fixed;fontSize=17;fillColor=#e1d5e7;strokeColor=#9673a6;" vertex="1" parent="1">
          <mxGeometry x="508" y="329" width="22" height="22" as="geometry" />
        </mxCell>
        <mxCell id="uXULtcH5huKSdauQUMfN-32" value="" style="endArrow=none;html=1;rounded=0;fontSize=13;" edge="1" parent="1">
          <mxGeometry width="50" height="50" relative="1" as="geometry">
            <mxPoint x="519" y="380" as="sourcePoint" />
            <mxPoint x="519" y="351" as="targetPoint" />
          </mxGeometry>
        </mxCell>
        <mxCell id="uXULtcH5huKSdauQUMfN-33" value="" style="endArrow=none;html=1;rounded=0;fontSize=13;entryX=0;entryY=0.5;entryDx=0;entryDy=0;" edge="1" parent="1" target="uXULtcH5huKSdauQUMfN-1">
          <mxGeometry width="50" height="50" relative="1" as="geometry">
            <mxPoint x="200" y="145" as="sourcePoint" />
            <mxPoint x="260" y="130" as="targetPoint" />
          </mxGeometry>
        </mxCell>
        <mxCell id="uXULtcH5huKSdauQUMfN-34" value="" style="endArrow=none;html=1;rounded=0;fontSize=13;" edge="1" parent="1">
          <mxGeometry width="50" height="50" relative="1" as="geometry">
            <mxPoint x="200" y="380" as="sourcePoint" />
            <mxPoint x="200" y="145" as="targetPoint" />
          </mxGeometry>
        </mxCell>
        <mxCell id="uXULtcH5huKSdauQUMfN-35" value="" style="endArrow=classic;html=1;rounded=0;fontSize=13;" edge="1" parent="1">
          <mxGeometry width="50" height="50" relative="1" as="geometry">
            <mxPoint x="200" y="380" as="sourcePoint" />
            <mxPoint x="320" y="380" as="targetPoint" />
          </mxGeometry>
        </mxCell>
        <mxCell id="uXULtcH5huKSdauQUMfN-36" value="" style="endArrow=classic;html=1;rounded=0;fontSize=13;" edge="1" parent="1">
          <mxGeometry width="50" height="50" relative="1" as="geometry">
            <mxPoint x="520" y="380" as="sourcePoint" />
            <mxPoint x="399" y="380" as="targetPoint" />
          </mxGeometry>
        </mxCell>
        <mxCell id="uXULtcH5huKSdauQUMfN-42" style="edgeStyle=orthogonalEdgeStyle;rounded=0;orthogonalLoop=1;jettySize=auto;html=1;exitX=0.5;exitY=1;exitDx=0;exitDy=0;fontSize=17;" edge="1" parent="1" source="uXULtcH5huKSdauQUMfN-37">
          <mxGeometry relative="1" as="geometry">
            <mxPoint x="359" y="440" as="targetPoint" />
          </mxGeometry>
        </mxCell>
        <mxCell id="uXULtcH5huKSdauQUMfN-37" value="&lt;span style=&quot;font-size: 17px;&quot;&gt;Concat&lt;/span&gt;" style="rounded=0;whiteSpace=wrap;html=1;fillColor=#fff2cc;strokeColor=#d6b656;" vertex="1" parent="1">
          <mxGeometry x="318" y="365" width="82" height="30" as="geometry" />
        </mxCell>
        <mxCell id="uXULtcH5huKSdauQUMfN-38" value="" style="endArrow=classic;html=1;rounded=0;fontSize=13;entryX=0.5;entryY=0;entryDx=0;entryDy=0;" edge="1" parent="1" target="uXULtcH5huKSdauQUMfN-1">
          <mxGeometry width="50" height="50" relative="1" as="geometry">
            <mxPoint x="359" y="80" as="sourcePoint" />
            <mxPoint x="380" y="30" as="targetPoint" />
          </mxGeometry>
        </mxCell>
        <mxCell id="uXULtcH5huKSdauQUMfN-40" value="&lt;font style=&quot;font-size: 17px;&quot;&gt;Input&lt;/font&gt;" style="text;html=1;strokeColor=none;fillColor=none;align=center;verticalAlign=middle;whiteSpace=wrap;rounded=0;fontSize=13;" vertex="1" parent="1">
          <mxGeometry x="369" y="80" width="60" height="30" as="geometry" />
        </mxCell>
        <mxCell id="uXULtcH5huKSdauQUMfN-43" value="&lt;span style=&quot;font-size: 17px;&quot;&gt;Output&lt;/span&gt;" style="text;html=1;strokeColor=none;fillColor=none;align=center;verticalAlign=middle;whiteSpace=wrap;rounded=0;fontSize=13;" vertex="1" parent="1">
          <mxGeometry x="370" y="406" width="60" height="30" as="geometry" />
        </mxCell>
      </root>
    </mxGraphModel>
  </diagram>
</mxfile>
